# xmcd
#
# Track frame offsets:
#	150
#	16968
#	34218
#	52907
#	65866
#	80610
#	94656
#	107480
#	120603
#	135532
#	151551
#	170270
#	181557
#	195413
#
# Disc length: 2722 seconds
# Revision: 0
# Processed by: cddbd v1.5.2PL0 Copyright (c) Steve Scherf et al.
# Submitted via: dBpowerAMP V12.0
#
DISCID=a30aa00e
DTITLE=Various Artist - Winter Singles 2020
DYEAR=2020
DGENRE=Bluegrass
TTITLE0=The Wildmans - Rock of Ages
TTITLE1=Kristy Cox - No Headlights
TTITLE2=Volume Five - Lonliness and Time
TTITLE3=Breaking Grass - Can't Take Back a Bullet
TTITLE4=Dave Adkins - Country Sunday
TTITLE5=Nothin' Fancy - Leaving's Up To You
TTITLE6=Junior Sisk - Lily Dale
TTITLE7=Blue Moon Rising - Me and Lonesome Again
TTITLE8=Colebrook Road - To Love Again
TTITLE9=Claybank - I Robbed a Train
TTITLE10=Backline - Salem Town
TTITLE11=Deer Creek Boys - Southbound Train
TTITLE12=Irene Kelley - Hills of Home
TTITLE13=Alan Bibey and Grasstowne - New Life
EXTD=
EXTT0=
EXTT1=
EXTT2=
EXTT3=
EXTT4=
EXTT5=
EXTT6=
EXTT7=
EXTT8=
EXTT9=
EXTT10=
EXTT11=
EXTT12=
EXTT13=
PLAYORDER=
